<svg width="280" height="188" viewBox="0 0 280 188" fill="none" xmlns="http://www.w3.org/2000/svg">
<path d="M30.563 126.336C29.423 126.336 28.463 125.946 27.683 125.166C26.903 124.386 26.513 123.426 26.513 122.286V67.6564C26.513 66.5164 26.903 65.5564 27.683 64.7764C28.463 63.9364 29.423 63.5164 30.563 63.5164H51.803C58.223 63.5164 63.173 64.9864 66.653 67.9264C70.193 70.8664 71.963 74.8264 71.963 79.8064C71.963 83.2864 71.123 86.1964 69.443 88.5364C67.823 90.8164 65.723 92.5264 63.143 93.6664C66.743 94.8064 69.683 96.6364 71.963 99.1564C74.303 101.676 75.473 104.856 75.473 108.696C75.473 114.216 73.613 118.536 69.893 121.656C66.173 124.776 60.323 126.336 52.343 126.336H30.563ZM49.643 90.6964C54.983 90.6964 58.733 89.7964 60.893 87.9964C63.053 86.1964 64.133 83.6764 64.133 80.4364C64.133 77.6164 62.963 75.3664 60.623 73.6864C58.343 72.0064 55.193 71.1664 51.173 71.1664H34.703V90.6964H49.643ZM51.533 118.686C57.353 118.686 61.463 117.786 63.863 115.986C66.323 114.186 67.553 111.636 67.553 108.336C67.553 101.496 62.243 98.0764 51.623 98.0764H34.703V118.686H51.533Z" fill="white"/>
<path d="M208.565 126.786C207.545 126.786 206.645 126.426 205.865 125.706C205.145 124.926 204.785 124.026 204.785 123.006C204.785 122.046 205.055 121.206 205.595 120.486L226.385 94.9264L205.775 69.5464C205.235 68.8264 204.965 67.9864 204.965 67.0264C204.965 65.8864 205.325 64.9564 206.045 64.2364C206.825 63.4564 207.785 63.0664 208.925 63.0664C209.585 63.0664 210.215 63.2164 210.815 63.5164C211.415 63.8164 211.895 64.2064 212.255 64.6864L231.245 88.8064L250.235 64.5064C250.895 63.5464 251.885 63.0664 253.205 63.0664C254.285 63.0664 255.215 63.4564 255.995 64.2364C256.775 64.9564 257.165 65.8564 257.165 66.9364C257.165 67.7764 256.925 68.5264 256.445 69.1864L235.655 94.8364L256.445 120.396C256.985 120.996 257.255 121.776 257.255 122.736C257.255 123.876 256.865 124.836 256.085 125.616C255.365 126.396 254.405 126.786 253.205 126.786C251.885 126.786 250.805 126.216 249.965 125.076L230.705 100.866L211.715 125.166C210.815 126.246 209.765 126.786 208.565 126.786Z" fill="white"/>
<path d="M180.782 96.8485C180.782 119.583 162.38 138.009 139.684 138.009C116.988 138.009 98.5862 119.583 98.5862 96.8485C98.5862 74.1143 116.988 55.6877 139.684 55.6877C162.38 55.6877 180.782 74.1143 180.782 96.8485Z" stroke="white" stroke-width="2.5"/>
<path d="M170.037 96.8478C170.037 113.639 156.446 127.248 139.684 127.248C122.922 127.248 109.331 113.639 109.331 96.8478C109.331 80.0567 122.922 66.448 139.684 66.448C156.446 66.448 170.037 80.0567 170.037 96.8478Z" stroke="white" stroke-width="2.5"/>
<path d="M160.834 97.0732C161.505 97.0732 162.052 97.6174 162.013 98.2871C161.843 101.216 161.059 104.085 159.704 106.715C158.163 109.708 155.925 112.31 153.168 114.314C150.412 116.317 147.213 117.668 143.826 118.258C140.834 118.779 137.769 118.694 134.821 118.014C134.177 117.865 133.814 117.195 134.006 116.562V116.562C134.195 115.943 134.844 115.593 135.475 115.736C138.071 116.322 140.767 116.39 143.398 115.932C146.413 115.406 149.26 114.204 151.714 112.42C154.168 110.637 156.16 108.321 157.532 105.656C158.718 103.355 159.413 100.848 159.58 98.287C159.623 97.6176 160.163 97.0732 160.834 97.0732V97.0732Z" fill="white"/>
<path d="M221.524 130.076C222.343 130.407 222.744 131.338 222.405 132.155C215.989 147.61 205.481 160.985 192.027 170.798C178.144 180.923 161.699 186.836 144.616 187.845C127.534 188.854 110.52 184.918 95.5682 176.496C81.0769 168.334 69.1029 156.287 60.954 141.693C60.5231 140.921 60.8123 139.95 61.5874 139.525V139.525C62.3734 139.093 63.3591 139.387 63.797 140.17C71.6541 154.208 83.1838 165.797 97.1318 173.653C111.55 181.774 127.956 185.57 144.429 184.597C160.902 183.624 176.76 177.922 190.147 168.158C203.099 158.712 213.219 145.842 219.408 130.972C219.752 130.146 220.694 129.74 221.524 130.076V130.076Z" fill="white"/>
<path d="M61.4154 48.7979C60.6386 48.3759 60.3454 47.4063 60.7732 46.6327C68.591 32.4965 79.9958 20.7152 93.8218 12.5135C108.103 4.04187 124.414 -0.282862 140.965 0.014278C157.516 0.311418 173.666 5.21893 187.641 14.1978C201.171 22.8907 212.156 35.0741 219.473 49.4821C219.874 50.2703 219.546 51.229 218.755 51.623V51.623C217.953 52.0224 216.98 51.6901 216.574 50.8916C209.518 37.0321 198.94 25.3119 185.918 16.9451C172.442 8.28674 156.868 3.55442 140.908 3.26789C124.948 2.98135 109.219 7.15169 95.4478 15.3209C82.1409 23.2147 71.1598 34.5472 63.6222 48.144C63.1876 48.9281 62.2032 49.226 61.4154 48.7979V48.7979Z" fill="white"/>
</svg>
